<svg xmlns="http://www.w3.org/2000/svg" viewBox="0 0 83.54 49.6"><defs><style>.cls-1{fill:#96885f;opacity:0.2;}</style></defs><title>rufina1-20opac</title><g id="Layer_2" data-name="Layer 2"><g id="Layer_1-2" data-name="Layer 1"><path class="cls-1" d="M58.7,37.06c7.48-1.24,12.94-2.54,12.94-9a17.19,17.19,0,0,1-1.76.13c-4.74,0-7.28-2.14-7.28-4,0-1.1.78-2.34,2.86-2.34a7,7,0,0,1,6.7,5.53,11.92,11.92,0,0,0,6-3.12,12.45,12.45,0,0,0,4-9.17C82.11,5.33,74.3.52,66.18.52c-6.83,0-13.79,3.44-16.25,10l-.46-.19C51.94,3.58,59,0,66.44,0,75,0,83.54,4.75,83.54,14.3a13.9,13.9,0,0,1-4.75,10.21A14.89,14.89,0,0,1,72.22,28C72.74,43.3,42,32.12,42,49.34v.26h-.45v-.26c0-17.22-30.75-6-30.23-21.39a15,15,0,0,1-6.57-3.44A13.89,13.89,0,0,1,0,14.3C0,4.75,8.51,0,17.1,0c7.41,0,14.49,3.58,17,10.34l-.45.19C31.14,4,24.18.52,17.35.52,9.23.52,1.43,5.33,1.43,15.08a12.44,12.44,0,0,0,4,9.17,11.91,11.91,0,0,0,6,3.12,7,7,0,0,1,6.69-5.53c2.08,0,2.86,1.24,2.86,2.34,0,1.89-2.54,4-7.28,4a17.39,17.39,0,0,1-1.76-.13c0,6.44,5.46,7.74,12.94,9,8.13,1.3,16.32,3.18,17,9.75C42.45,40.24,50.57,38.36,58.7,37.06Zm-45-9.36c3,0,6.63-1.17,6.63-3.52,0-.84-.52-1.82-2.28-1.82A6.47,6.47,0,0,0,12,27.5,17.23,17.23,0,0,0,13.72,27.7Zm51.74-5.34c-1.75,0-2.27,1-2.27,1.82,0,2.35,3.64,3.52,6.63,3.52a17.36,17.36,0,0,0,1.75-.2A6.46,6.46,0,0,0,65.46,22.36Z"/></g></g></svg>