<svg xmlns="http://www.w3.org/2000/svg" viewBox="0 0 115.86 38.39"><defs><style>.cls-1{fill:#96885f;opacity:0.2;}</style></defs><title>rufina2-20opac</title><g id="Layer_2" data-name="Layer 2"><g id="Layer_1-2" data-name="Layer 1"><path class="cls-1" d="M94.46,2.82c9.88,0,21.23,4.63,21.4,16.21.17,10.22-8.93,16.71-18.41,16.71a20.45,20.45,0,0,1-9.83-2.49l.28-.5a21.33,21.33,0,0,0,9.55,2.31c9,0,17.84-6,17.67-16.37C115,8.07,103.88,3.56,95.36,3.56,81.24,3.56,67.92,13.38,57,21S34.21,34.84,21.4,34.84C11.18,34.84,0,30.21,0,18.63,0,8.19,8.69,1.81,18.07,1.81A21.26,21.26,0,0,1,28.23,4.4L28,4.91a20.69,20.69,0,0,0-9.6-2.37C9.31,2.54.79,8.58.79,19c0,10.61,11,15.13,19.7,15.13,12.76,0,24.84-8,35.12-15.13C67.64,10.5,80.34,2.82,94.46,2.82ZM82.6,1.35A16.41,16.41,0,0,0,77.46.51c-16.77,0-39.41,25.63-56.4,25.63A14.09,14.09,0,0,1,8.75,19.53l.34-.28a13.45,13.45,0,0,0,11.57,6.32C36.87,25.57,58.49,0,76.28,0a18.09,18.09,0,0,1,6.43,1.07ZM32.69,37a16.41,16.41,0,0,0,5.14.84c16.77,0,39.4-25.63,56.4-25.63,4.57,0,8.75,1.64,12.31,6.61l-.34.28c-3.33-4.63-7.28-6.33-11.57-6.33C78.42,12.81,56.8,38.39,39,38.39a18.09,18.09,0,0,1-6.43-1.07Z"/></g></g></svg>